<svg version="1.1" x="0" y="0" id="i39xaodg1" diagram-revision="8" width="724.9499999999999" height="1090" xmlns="http://www.w3.org/2000/svg" xmlns:xml="http://www.w3.org/XML/1998/namespace" xmlns:xlink="http://www.w3.org/1999/xlink">
  <g id="Initial-im7hds81-ko286" transform="translate(367.35,5)">
    <desc>root/uml/activityDiagram/initial?version=1&amp;author=Cinergix</desc>
    <g id="image">
      <circle vector-effect="non-scaling-stroke" fill="#45b29d" stroke="#45b29d" stroke-width="2" cx="15" cy="15" r="15" style="fill:#45b29d;stroke:#45b29d;stroke-width:2;"/>
    </g>
  </g>
  <g id="Activity-im7hds81-ko287" transform="translate(307.35,105.05000000000001)">
    <desc>root/uml/activityDiagram/activity?version=1&amp;author=Cinergix</desc>
    <g id="image">
      <path vector-effect="non-scaling-stroke" fill="#e5b96f" stroke="#e5b96f" stroke-width="1.5" d="M151,31c0,11-9,20-20,20H21&#xD;&#xA;&#x9;C10,51,1,42,1,31V21C1,10,10,1,21,1h110c11,0,20,9,20,20V31z" style="fill:#e5b96f;stroke:#e5b96f;stroke-width:1.5;"/>
    </g>
    <text x="0" y="0" width="87.4" height="44.75" transform="translate(31.3,4.6)">
      <tspan x="5" y="15.920019531249999" style="font-family:Lato;font-size:14px;fill:#ffffff;">Login ID and</tspan>
      <tspan x="14.3" y="34.92001953125" style="font-family:Lato;font-size:14px;fill:#ffffff;">Password</tspan>
    </text>
  </g>
  <g id="Decision-im7hds81-ko288" transform="translate(357.35,237.45)">
    <desc>root/uml/activityDiagram/decision?version=1&amp;author=Cinergix</desc>
    <g id="image">
      <polygon vector-effect="non-scaling-stroke" fill="#ffffff" stroke="#ea5b67" stroke-width="2" points="25,0 50,25 25,50 0,25 " style="fill:#ffffff;stroke:#ea5b67;stroke-width:2;"/>
    </g>
  </g>
  <g id="Activity-im7hds81-ko289" transform="translate(307.35,365.04999999999995)">
    <desc>root/uml/activityDiagram/activity?version=1&amp;author=Cinergix</desc>
    <g id="image">
      <path vector-effect="non-scaling-stroke" fill="#e5b96f" stroke="#e5b96f" stroke-width="1.5" d="M151,31c0,11-9,20-20,20H21&#xD;&#xA;&#x9;C10,51,1,42,1,31V21C1,10,10,1,21,1h110c11,0,20,9,20,20V31z" style="fill:#e5b96f;stroke:#e5b96f;stroke-width:1.5;"/>
    </g>
    <text x="0" y="0" width="99.3" height="39.4" transform="translate(25.35,7.3)">
      <tspan x="5" y="13.90009765625" style="font-family:Arial;font-size:12px;fill:#ffffff;">Select Operation</tspan>
      <tspan x="18.8" y="28.900097656249997" style="font-family:Arial;font-size:12px;fill:#ffffff;">Transaction</tspan>
    </text>
  </g>
  <g id="Activity-im7hds81-ko290" transform="translate(307.35,485.04999999999995)">
    <desc>root/uml/activityDiagram/activity?version=1&amp;author=Cinergix</desc>
    <g id="image">
      <path vector-effect="non-scaling-stroke" fill="#e5b96f" stroke="#e5b96f" stroke-width="1.5" d="M151,31c0,11-9,20-20,20H21&#xD;&#xA;&#x9;C10,51,1,42,1,31V21C1,10,10,1,21,1h110c11,0,20,9,20,20V31z" style="fill:#e5b96f;stroke:#e5b96f;stroke-width:1.5;"/>
    </g>
    <text x="0" y="0" width="126.4" height="43.4" transform="translate(11.75,5.3)">
      <tspan x="7" y="15.90009765625" style="font-family:Arial;font-size:12px;fill:#ffffff;" xml:space="preserve">Select  View Account</tspan>
      <tspan x="41.5" y="30.900097656249997" style="font-family:Arial;font-size:12px;fill:#ffffff;">Balance</tspan>
    </text>
  </g>
  <g id="Activity-im7hds81-ko291" transform="translate(307.35,600.05)">
    <desc>root/uml/activityDiagram/activity?version=1&amp;author=Cinergix</desc>
    <g id="image">
      <path vector-effect="non-scaling-stroke" fill="#e5b96f" stroke="#e5b96f" stroke-width="1.5" d="M151,31c0,11-9,20-20,20H21&#xD;&#xA;&#x9;C10,51,1,42,1,31V21C1,10,10,1,21,1h110c11,0,20,9,20,20V31z" style="fill:#e5b96f;stroke:#e5b96f;stroke-width:1.5;"/>
    </g>
    <text x="0" y="0" width="82.4" height="39.4" transform="translate(33.8,7.3)">
      <tspan x="5" y="13.90009765625" style="font-family:Arial;font-size:12px;fill:#ffffff;">View Account</tspan>
      <tspan x="19.5" y="28.900097656249997" style="font-family:Arial;font-size:12px;fill:#ffffff;">Balance</tspan>
    </text>
  </g>
  <g id="Activity-im7hds81-ko292" transform="translate(307.35,710.05)">
    <desc>root/uml/activityDiagram/activity?version=1&amp;author=Cinergix</desc>
    <g id="image">
      <path vector-effect="non-scaling-stroke" fill="#e5b96f" stroke="#e5b96f" stroke-width="1.5" d="M151,31c0,11-9,20-20,20H21&#xD;&#xA;&#x9;C10,51,1,42,1,31V21C1,10,10,1,21,1h110c11,0,20,9,20,20V31z" style="fill:#e5b96f;stroke:#e5b96f;stroke-width:1.5;"/>
    </g>
    <text x="0" y="0" width="131.95" height="43.4" transform="translate(9,5.3)">
      <tspan x="7" y="15.90009765625" style="font-family:Arial;font-size:12px;fill:#ffffff;">Print Account Balance</tspan>
      <tspan x="50.35" y="30.900097656249997" style="font-family:Arial;font-size:12px;fill:#ffffff;">Sheet</tspan>
    </text>
  </g>
  <g id="Decision-im7hds81-ko293" transform="translate(357.35,840.05)">
    <desc>root/uml/activityDiagram/decision?version=1&amp;author=Cinergix</desc>
    <g id="image">
      <polygon vector-effect="non-scaling-stroke" fill="#ffffff" stroke="#ea5b67" stroke-width="2" points="25,0 50,25 25,50 0,25 " style="fill:#ffffff;stroke:#ea5b67;stroke-width:2;"/>
    </g>
  </g>
  <g id="Activity-im7hds81-ko294" transform="translate(569.9,840.05)">
    <desc>root/uml/activityDiagram/activity?version=1&amp;author=Cinergix</desc>
    <g id="image">
      <path vector-effect="non-scaling-stroke" fill="#e5b96f" stroke="#e5b96f" stroke-width="1.5" d="M151,31c0,11-9,20-20,20H21&#xD;&#xA;&#x9;C10,51,1,42,1,31V21C1,10,10,1,21,1h110c11,0,20,9,20,20V31z" style="fill:#e5b96f;stroke:#e5b96f;stroke-width:1.5;"/>
    </g>
    <text x="0" y="0" width="145.55" height="43.4" transform="translate(2.2,5.3)">
      <tspan x="7.15" y="15.90009765625" style="font-family:Arial;font-size:12px;fill:#ffffff;">Printed Account Balance</tspan>
      <tspan x="57.15" y="30.900097656249997" style="font-family:Arial;font-size:12px;fill:#ffffff;">Sheet</tspan>
    </text>
  </g>
  <g id="Activity-im7hds81-ko295" transform="translate(307.35,940.05)">
    <desc>root/uml/activityDiagram/activity?version=1&amp;author=Cinergix</desc>
    <g id="image">
      <path vector-effect="non-scaling-stroke" fill="#e5b96f" stroke="#e5b96f" stroke-width="1.5" d="M151,31c0,11-9,20-20,20H21&#xD;&#xA;&#x9;C10,51,1,42,1,31V21C1,10,10,1,21,1h110c11,0,20,9,20,20V31z" style="fill:#e5b96f;stroke:#e5b96f;stroke-width:1.5;"/>
    </g>
    <text x="0" y="0" width="111.15" height="29.75" transform="translate(19.4,12.1)">
      <tspan x="7" y="17.97001953125" style="font-family:Lato;font-size:14px;fill:#ffffff;">Exit Transaction</tspan>
    </text>
  </g>
  <g id="Decision-im7hds81-ko296" transform="translate(139.89999999999998,237.45)">
    <desc>root/uml/activityDiagram/decision?version=1&amp;author=Cinergix</desc>
    <g id="image">
      <polygon vector-effect="non-scaling-stroke" fill="#ffffff" stroke="#ea5b67" stroke-width="2" points="25,0 50,25 25,50 0,25 " style="fill:#ffffff;stroke:#ea5b67;stroke-width:2;"/>
    </g>
  </g>
  <g id="End-im7hds81-ko297" transform="translate(367.35,1055)">
    <desc>root/uml/activityDiagram/activityEnd?version=1&amp;author=Cinergix</desc>
    <g id="image">
      <g fill-rule="evenodd">
        <path fill="#45b29d" stroke="#45b29d" stroke-width="0.5" d="M14.5,0c7.9,0,14.2,6.4,14.2,14.2s-6.4,14.2-14.2,14.2S0.3,22.1,0.3,14.2&#xD;&#xA;&#x9;&#x9;S6.7,0,14.5,0z M14.5,1.9c6.8,0,12.3,5.5,12.3,12.3s-5.5,12.2-12.3,12.2S2.2,21,2.2,14.2S7.8,1.9,14.5,1.9z" style="fill:#45b29d;stroke:#45b29d;stroke-width:0.5;"/>
        <circle vector-effect="non-scaling-stroke" fill="#45b29d" stroke="#45b29d" stroke-width="0.5" cx="14.5" cy="14.2" r="7.1" style="fill:#45b29d;stroke:#45b29d;stroke-width:0.5;"/>
      </g>
    </g>
  </g>
  <g id="Connector-im7hds81-ko298" transform="translate(-360.1,-185)">
    <g id="graphics">
      
      <path d="M 742.45 220.0333333333333 L 742.45 290.0833333333333 " fill="none" stroke="#a0a0a0" stroke-width="2"/>
    </g>
    <g id="toIcon" transform="translate(742.45,290.05) rotate(180)">
      <metadata id="metadata3157">
        <aaa:RDF xmlns:aaa="http://www.w3.org/1999/02/22-rdf-syntax-ns#"></aaa:RDF>
      </metadata>
      <defs id="defs3155"/>
      <aaa:namedview pagecolor="#ffffff" bordercolor="#666666" borderopacity="1" objecttolerance="10" gridtolerance="10" guidetolerance="10" aab:pageopacity="0" aab:pageshadow="2" aab:window-width="1366" aab:window-height="706" id="namedview3153" showgrid="true" aab:zoom="256" aab:cx="1.1414314" aab:cy="9.6660507" aab:window-x="-8" aab:window-y="-8" aab:window-maximized="1" aab:current-layer="Layer_1" xmlns:aaa="http://sodipodi.sourceforge.net/DTD/sodipodi-0.dtd" xmlns:aab="http://www.inkscape.org/namespaces/inkscape"></aaa:namedview>
      <polyline points="-8,8 0,0 8,8  " id="polyline3151" transform="translate(0.00331331,0.73371025)" style="fill:none;stroke:#a0a0a0;stroke-width:2;" stroke="#a0a0a0" stroke-width="2"/>
    </g>
  </g>
  <g id="Connector-im7hds81-ko299" transform="translate(-360.1,-185)">
    <g id="graphics">
      
      <path d="M 742.45 340.0833333333333 L 742.45 422.475 " fill="none" stroke="#a0a0a0" stroke-width="2"/>
    </g>
    <g id="toIcon" transform="translate(742.45,422.45) rotate(180)">
      <metadata id="metadata3157">
        <aaa:RDF xmlns:aaa="http://www.w3.org/1999/02/22-rdf-syntax-ns#"></aaa:RDF>
      </metadata>
      <defs id="defs3155"/>
      <aaa:namedview pagecolor="#ffffff" bordercolor="#666666" borderopacity="1" objecttolerance="10" gridtolerance="10" guidetolerance="10" aab:pageopacity="0" aab:pageshadow="2" aab:window-width="1366" aab:window-height="706" id="namedview3153" showgrid="true" aab:zoom="256" aab:cx="1.1414314" aab:cy="9.6660507" aab:window-x="-8" aab:window-y="-8" aab:window-maximized="1" aab:current-layer="Layer_1" xmlns:aaa="http://sodipodi.sourceforge.net/DTD/sodipodi-0.dtd" xmlns:aab="http://www.inkscape.org/namespaces/inkscape"></aaa:namedview>
      <polyline points="-8,8 0,0 8,8  " id="polyline3151" transform="translate(0.00331331,0.73371025)" style="fill:none;stroke:#a0a0a0;stroke-width:2;" stroke="#a0a0a0" stroke-width="2"/>
    </g>
  </g>
  <g id="Connector-im7hds81-ko300" transform="translate(-360.1,-185)">
    <g id="graphics">
      
      <path d="M 742.45 472.475 L 742.45 550.0833333333333 " fill="none" stroke="#a0a0a0" stroke-width="2"/>
    </g>
    <g id="toIcon" transform="translate(742.45,550.05) rotate(180)">
      <metadata id="metadata3157">
        <aaa:RDF xmlns:aaa="http://www.w3.org/1999/02/22-rdf-syntax-ns#"></aaa:RDF>
      </metadata>
      <defs id="defs3155"/>
      <aaa:namedview pagecolor="#ffffff" bordercolor="#666666" borderopacity="1" objecttolerance="10" gridtolerance="10" guidetolerance="10" aab:pageopacity="0" aab:pageshadow="2" aab:window-width="1366" aab:window-height="706" id="namedview3153" showgrid="true" aab:zoom="256" aab:cx="1.1414314" aab:cy="9.6660507" aab:window-x="-8" aab:window-y="-8" aab:window-maximized="1" aab:current-layer="Layer_1" xmlns:aaa="http://sodipodi.sourceforge.net/DTD/sodipodi-0.dtd" xmlns:aab="http://www.inkscape.org/namespaces/inkscape"></aaa:namedview>
      <polyline points="-8,8 0,0 8,8  " id="polyline3151" transform="translate(0.00331331,0.73371025)" style="fill:none;stroke:#a0a0a0;stroke-width:2;" stroke="#a0a0a0" stroke-width="2"/>
    </g>
  </g>
  <g id="Connector-im7hds81-ko301" transform="translate(-360.1,-185)">
    <g id="graphics">
      
      <path d="M 742.45 600.0833333333333 L 742.45 670.0833333333333 " fill="none" stroke="#a0a0a0" stroke-width="2"/>
    </g>
    <g id="toIcon" transform="translate(742.45,670.05) rotate(180)">
      <metadata id="metadata3157">
        <aaa:RDF xmlns:aaa="http://www.w3.org/1999/02/22-rdf-syntax-ns#"></aaa:RDF>
      </metadata>
      <defs id="defs3155"/>
      <aaa:namedview pagecolor="#ffffff" bordercolor="#666666" borderopacity="1" objecttolerance="10" gridtolerance="10" guidetolerance="10" aab:pageopacity="0" aab:pageshadow="2" aab:window-width="1366" aab:window-height="706" id="namedview3153" showgrid="true" aab:zoom="256" aab:cx="1.1414314" aab:cy="9.6660507" aab:window-x="-8" aab:window-y="-8" aab:window-maximized="1" aab:current-layer="Layer_1" xmlns:aaa="http://sodipodi.sourceforge.net/DTD/sodipodi-0.dtd" xmlns:aab="http://www.inkscape.org/namespaces/inkscape"></aaa:namedview>
      <polyline points="-8,8 0,0 8,8  " id="polyline3151" transform="translate(0.00331331,0.73371025)" style="fill:none;stroke:#a0a0a0;stroke-width:2;" stroke="#a0a0a0" stroke-width="2"/>
    </g>
  </g>
  <g id="Connector-im7hds81-ko302" transform="translate(-360.1,-185)">
    <g id="graphics">
      
      <path d="M 742.45 720.0833333333333 L 742.45 785.0833333333333 " fill="none" stroke="#a0a0a0" stroke-width="2"/>
    </g>
    <g id="toIcon" transform="translate(742.45,785.05) rotate(180)">
      <metadata id="metadata3157">
        <aaa:RDF xmlns:aaa="http://www.w3.org/1999/02/22-rdf-syntax-ns#"></aaa:RDF>
      </metadata>
      <defs id="defs3155"/>
      <aaa:namedview pagecolor="#ffffff" bordercolor="#666666" borderopacity="1" objecttolerance="10" gridtolerance="10" guidetolerance="10" aab:pageopacity="0" aab:pageshadow="2" aab:window-width="1366" aab:window-height="706" id="namedview3153" showgrid="true" aab:zoom="256" aab:cx="1.1414314" aab:cy="9.6660507" aab:window-x="-8" aab:window-y="-8" aab:window-maximized="1" aab:current-layer="Layer_1" xmlns:aaa="http://sodipodi.sourceforge.net/DTD/sodipodi-0.dtd" xmlns:aab="http://www.inkscape.org/namespaces/inkscape"></aaa:namedview>
      <polyline points="-8,8 0,0 8,8  " id="polyline3151" transform="translate(0.00331331,0.73371025)" style="fill:none;stroke:#a0a0a0;stroke-width:2;" stroke="#a0a0a0" stroke-width="2"/>
    </g>
  </g>
  <g id="Connector-im7hds81-ko303" transform="translate(-360.1,-185)">
    <g id="graphics">
      
      <path d="M 742.45 835.0833333333333 L 742.45 895.0833333333333 " fill="none" stroke="#a0a0a0" stroke-width="2"/>
    </g>
    <g id="toIcon" transform="translate(742.45,895.05) rotate(180)">
      <metadata id="metadata3157">
        <aaa:RDF xmlns:aaa="http://www.w3.org/1999/02/22-rdf-syntax-ns#"></aaa:RDF>
      </metadata>
      <defs id="defs3155"/>
      <aaa:namedview pagecolor="#ffffff" bordercolor="#666666" borderopacity="1" objecttolerance="10" gridtolerance="10" guidetolerance="10" aab:pageopacity="0" aab:pageshadow="2" aab:window-width="1366" aab:window-height="706" id="namedview3153" showgrid="true" aab:zoom="256" aab:cx="1.1414314" aab:cy="9.6660507" aab:window-x="-8" aab:window-y="-8" aab:window-maximized="1" aab:current-layer="Layer_1" xmlns:aaa="http://sodipodi.sourceforge.net/DTD/sodipodi-0.dtd" xmlns:aab="http://www.inkscape.org/namespaces/inkscape"></aaa:namedview>
      <polyline points="-8,8 0,0 8,8  " id="polyline3151" transform="translate(0.00331331,0.73371025)" style="fill:none;stroke:#a0a0a0;stroke-width:2;" stroke="#a0a0a0" stroke-width="2"/>
    </g>
  </g>
  <g id="Connector-im7hds81-ko304" transform="translate(-360.1,-185)">
    <g id="graphics">
      
      <path d="M 742.45 945.0833333333333 L 742.45 1025.05 " fill="none" stroke="#a0a0a0" stroke-width="2"/>
    </g>
    <g id="toIcon" transform="translate(742.45,1025.05) rotate(180)">
      <metadata id="metadata3157">
        <aaa:RDF xmlns:aaa="http://www.w3.org/1999/02/22-rdf-syntax-ns#"></aaa:RDF>
      </metadata>
      <defs id="defs3155"/>
      <aaa:namedview pagecolor="#ffffff" bordercolor="#666666" borderopacity="1" objecttolerance="10" gridtolerance="10" guidetolerance="10" aab:pageopacity="0" aab:pageshadow="2" aab:window-width="1366" aab:window-height="706" id="namedview3153" showgrid="true" aab:zoom="256" aab:cx="1.1414314" aab:cy="9.6660507" aab:window-x="-8" aab:window-y="-8" aab:window-maximized="1" aab:current-layer="Layer_1" xmlns:aaa="http://sodipodi.sourceforge.net/DTD/sodipodi-0.dtd" xmlns:aab="http://www.inkscape.org/namespaces/inkscape"></aaa:namedview>
      <polyline points="-8,8 0,0 8,8  " id="polyline3151" transform="translate(0.00331331,0.73371025)" style="fill:none;stroke:#a0a0a0;stroke-width:2;" stroke="#a0a0a0" stroke-width="2"/>
    </g>
  </g>
  <g id="Connector-im7hds81-ko305" transform="translate(-360.1,-185)">
    <g id="graphics">
      
      <path d="M 742.45 1075.05 L 742.45 1125.0833333333333 " fill="none" stroke="#a0a0a0" stroke-width="2"/>
    </g>
    <g id="toIcon" transform="translate(742.45,1125.05) rotate(180)">
      <metadata id="metadata3157">
        <aaa:RDF xmlns:aaa="http://www.w3.org/1999/02/22-rdf-syntax-ns#"></aaa:RDF>
      </metadata>
      <defs id="defs3155"/>
      <aaa:namedview pagecolor="#ffffff" bordercolor="#666666" borderopacity="1" objecttolerance="10" gridtolerance="10" guidetolerance="10" aab:pageopacity="0" aab:pageshadow="2" aab:window-width="1366" aab:window-height="706" id="namedview3153" showgrid="true" aab:zoom="256" aab:cx="1.1414314" aab:cy="9.6660507" aab:window-x="-8" aab:window-y="-8" aab:window-maximized="1" aab:current-layer="Layer_1" xmlns:aaa="http://sodipodi.sourceforge.net/DTD/sodipodi-0.dtd" xmlns:aab="http://www.inkscape.org/namespaces/inkscape"></aaa:namedview>
      <polyline points="-8,8 0,0 8,8  " id="polyline3151" transform="translate(0.00331331,0.73371025)" style="fill:none;stroke:#a0a0a0;stroke-width:2;" stroke="#a0a0a0" stroke-width="2"/>
    </g>
  </g>
  <g id="Connector-im7hds81-ko306" transform="translate(-360.1,-185)">
    <g id="graphics">
      
      <path d="M 742.45 1175.0833333333333 L 742.45 1240 " fill="none" stroke="#a0a0a0" stroke-width="2"/>
    </g>
    <g id="toIcon" transform="translate(742.45,1240) rotate(180)">
      <metadata id="metadata3157">
        <aaa:RDF xmlns:aaa="http://www.w3.org/1999/02/22-rdf-syntax-ns#"></aaa:RDF>
      </metadata>
      <defs id="defs3155"/>
      <aaa:namedview pagecolor="#ffffff" bordercolor="#666666" borderopacity="1" objecttolerance="10" gridtolerance="10" guidetolerance="10" aab:pageopacity="0" aab:pageshadow="2" aab:window-width="1366" aab:window-height="706" id="namedview3153" showgrid="true" aab:zoom="256" aab:cx="1.1414314" aab:cy="9.6660507" aab:window-x="-8" aab:window-y="-8" aab:window-maximized="1" aab:current-layer="Layer_1" xmlns:aaa="http://sodipodi.sourceforge.net/DTD/sodipodi-0.dtd" xmlns:aab="http://www.inkscape.org/namespaces/inkscape"></aaa:namedview>
      <polyline points="-8,8 0,0 8,8  " id="polyline3151" transform="translate(0.00331331,0.73371025)" style="fill:none;stroke:#a0a0a0;stroke-width:2;" stroke="#a0a0a0" stroke-width="2"/>
    </g>
  </g>
  <g id="Connector-im7hds81-ko307" transform="translate(-360.1,-185)">
    <g id="graphics">
      
      <path d="M 767.45 1050.05 L 930 1050.05 " fill="none" stroke="#a0a0a0" stroke-width="2"/>
    </g>
    <g id="toIcon" transform="translate(930,1050.05) rotate(90)">
      <metadata id="metadata3157">
        <aaa:RDF xmlns:aaa="http://www.w3.org/1999/02/22-rdf-syntax-ns#"></aaa:RDF>
      </metadata>
      <defs id="defs3155"/>
      <aaa:namedview pagecolor="#ffffff" bordercolor="#666666" borderopacity="1" objecttolerance="10" gridtolerance="10" guidetolerance="10" aab:pageopacity="0" aab:pageshadow="2" aab:window-width="1366" aab:window-height="706" id="namedview3153" showgrid="true" aab:zoom="256" aab:cx="1.1414314" aab:cy="9.6660507" aab:window-x="-8" aab:window-y="-8" aab:window-maximized="1" aab:current-layer="Layer_1" xmlns:aaa="http://sodipodi.sourceforge.net/DTD/sodipodi-0.dtd" xmlns:aab="http://www.inkscape.org/namespaces/inkscape"></aaa:namedview>
      <polyline points="-8,8 0,0 8,8  " id="polyline3151" transform="translate(0.00331331,0.73371025)" style="fill:none;stroke:#a0a0a0;stroke-width:2;" stroke="#a0a0a0" stroke-width="2"/>
    </g>
  </g>
  <g id="Connector-im7hds81-ko308" transform="translate(-360.1,-185)">
    <g id="graphics">
      
      <path d="M 1005 1075.05 L 1005 1150.0833333333333 L 817.4499999999999 1150.0833333333333 " fill="none" stroke="#a0a0a0" stroke-width="2"/>
    </g>
    <g id="toIcon" transform="translate(817.4,1150.05) rotate(-90)">
      <metadata id="metadata3157">
        <aaa:RDF xmlns:aaa="http://www.w3.org/1999/02/22-rdf-syntax-ns#"></aaa:RDF>
      </metadata>
      <defs id="defs3155"/>
      <aaa:namedview pagecolor="#ffffff" bordercolor="#666666" borderopacity="1" objecttolerance="10" gridtolerance="10" guidetolerance="10" aab:pageopacity="0" aab:pageshadow="2" aab:window-width="1366" aab:window-height="706" id="namedview3153" showgrid="true" aab:zoom="256" aab:cx="1.1414314" aab:cy="9.6660507" aab:window-x="-8" aab:window-y="-8" aab:window-maximized="1" aab:current-layer="Layer_1" xmlns:aaa="http://sodipodi.sourceforge.net/DTD/sodipodi-0.dtd" xmlns:aab="http://www.inkscape.org/namespaces/inkscape"></aaa:namedview>
      <polyline points="-8,8 0,0 8,8  " id="polyline3151" transform="translate(0.00331331,0.73371025)" style="fill:none;stroke:#a0a0a0;stroke-width:2;" stroke="#a0a0a0" stroke-width="2"/>
    </g>
  </g>
  <g id="Connector-im7hds81-ko309" transform="translate(-360.1,-185)">
    <g id="graphics">
      
      <path d="M 717.45 447.475 L 550 447.475 " fill="none" stroke="#a0a0a0" stroke-width="2"/>
    </g>
    <g id="toIcon" transform="translate(550,447.45) rotate(-90)">
      <metadata id="metadata3157">
        <aaa:RDF xmlns:aaa="http://www.w3.org/1999/02/22-rdf-syntax-ns#"></aaa:RDF>
      </metadata>
      <defs id="defs3155"/>
      <aaa:namedview pagecolor="#ffffff" bordercolor="#666666" borderopacity="1" objecttolerance="10" gridtolerance="10" guidetolerance="10" aab:pageopacity="0" aab:pageshadow="2" aab:window-width="1366" aab:window-height="706" id="namedview3153" showgrid="true" aab:zoom="256" aab:cx="1.1414314" aab:cy="9.6660507" aab:window-x="-8" aab:window-y="-8" aab:window-maximized="1" aab:current-layer="Layer_1" xmlns:aaa="http://sodipodi.sourceforge.net/DTD/sodipodi-0.dtd" xmlns:aab="http://www.inkscape.org/namespaces/inkscape"></aaa:namedview>
      <polyline points="-8,8 0,0 8,8  " id="polyline3151" transform="translate(0.00331331,0.73371025)" style="fill:none;stroke:#a0a0a0;stroke-width:2;" stroke="#a0a0a0" stroke-width="2"/>
    </g>
  </g>
  <g id="Connector-im7hds81-ko310" transform="translate(-360.1,-185)">
    <g id="graphics">
      
      <path d="M 525 422.475 L 525 315.0833333333333 L 667.45 315.0833333333333 " fill="none" stroke="#a0a0a0" stroke-width="2"/>
    </g>
    <g id="toIcon" transform="translate(667.45,315.05) rotate(90)">
      <metadata id="metadata3157">
        <aaa:RDF xmlns:aaa="http://www.w3.org/1999/02/22-rdf-syntax-ns#"></aaa:RDF>
      </metadata>
      <defs id="defs3155"/>
      <aaa:namedview pagecolor="#ffffff" bordercolor="#666666" borderopacity="1" objecttolerance="10" gridtolerance="10" guidetolerance="10" aab:pageopacity="0" aab:pageshadow="2" aab:window-width="1366" aab:window-height="706" id="namedview3153" showgrid="true" aab:zoom="256" aab:cx="1.1414314" aab:cy="9.6660507" aab:window-x="-8" aab:window-y="-8" aab:window-maximized="1" aab:current-layer="Layer_1" xmlns:aaa="http://sodipodi.sourceforge.net/DTD/sodipodi-0.dtd" xmlns:aab="http://www.inkscape.org/namespaces/inkscape"></aaa:namedview>
      <polyline points="-8,8 0,0 8,8  " id="polyline3151" transform="translate(0.00331331,0.73371025)" style="fill:none;stroke:#a0a0a0;stroke-width:2;" stroke="#a0a0a0" stroke-width="2"/>
    </g>
  </g>
  <g id="TextBox-im7hds81-ko311" transform="translate(374.94999999999993,195.05)">
    <desc>root/textControl?version=&amp;author=</desc>
    <g id="image"/>
    <text x="0" y="0" width="104.25" height="23.4" transform="translate(22.85,5.65)">
      <tspan x="7" y="15.950097656250001" style="font-family:Arial;font-size:12px;fill:#000000;">[Right Password]</tspan>
    </text>
  </g>
  <g id="TextBox-im7hds81-ko312" transform="translate(234.89999999999998,215.05)">
    <desc>root/textControl?version=&amp;author=</desc>
    <g id="image"/>
    <text x="0" y="0" width="111.15" height="23.4" transform="translate(19.4,5.65)">
      <tspan x="7" y="15.950097656250001" style="font-family:Arial;font-size:12px;fill:#000000;">[Wrong Password]</tspan>
    </text>
  </g>
  <g id="TextBox-im7hds81-ko313" transform="translate(354.9,825)">
    <desc>root/textControl?version=&amp;author=</desc>
    <g id="image"/>
    <text x="0" y="0" width="45.35" height="23.4" transform="translate(52.3,5.65)">
      <tspan x="7" y="15.950097656250001" style="font-family:Arial;font-size:12px;fill:#000000;">[Print]</tspan>
    </text>
  </g>
  <g id="TextBox-im7hds81-ko314" transform="translate(269.9,890)">
    <desc>root/textControl?version=&amp;author=</desc>
    <g id="image"/>
    <text x="0" y="0" width="64.05" height="23.4" transform="translate(42.95,5.65)">
      <tspan x="7" y="15.950097656250001" style="font-family:Arial;font-size:12px;fill:#000000;">[No Print]</tspan>
    </text>
  </g>
  <g id="TextBox-im7hds81-ko316" transform="translate(-0.05000000000001137,200)">
    <desc>root/textControl?version=&amp;author=</desc>
    <g id="image"/>
    <text x="0" y="0" width="118.6" height="23.4" transform="translate(15.7,5.65)">
      <tspan x="7" y="15.950097656250001" style="font-family:Arial;font-size:12px;fill:#000000;">[Reenter Password]</tspan>
    </text>
  </g>
  <g id="TextBox-im7hds81-ko317" transform="translate(39.94999999999999,300)">
    <desc>root/textControl?version=&amp;author=</desc>
    <g id="image"/>
    <text x="0" y="0" width="40.7" height="23.4" transform="translate(54.65,5.65)">
      <tspan x="7" y="15.950097656250001" style="font-family:Arial;font-size:12px;fill:#000000;">[Exit]</tspan>
    </text>
  </g>
  <g id="Connector-im7hds81-ko318" transform="translate(-360.1,-185)">
    <g id="graphics">
      
      <path d="M 525 472.475 L 525 1255 L 727.45 1255 " fill="none" stroke="#a0a0a0" stroke-width="2"/>
    </g>
    <g id="toIcon" transform="translate(727.45,1255) rotate(90)">
      <metadata id="metadata3157">
        <aaa:RDF xmlns:aaa="http://www.w3.org/1999/02/22-rdf-syntax-ns#"></aaa:RDF>
      </metadata>
      <defs id="defs3155"/>
      <aaa:namedview pagecolor="#ffffff" bordercolor="#666666" borderopacity="1" objecttolerance="10" gridtolerance="10" guidetolerance="10" aab:pageopacity="0" aab:pageshadow="2" aab:window-width="1366" aab:window-height="706" id="namedview3153" showgrid="true" aab:zoom="256" aab:cx="1.1414314" aab:cy="9.6660507" aab:window-x="-8" aab:window-y="-8" aab:window-maximized="1" aab:current-layer="Layer_1" xmlns:aaa="http://sodipodi.sourceforge.net/DTD/sodipodi-0.dtd" xmlns:aab="http://www.inkscape.org/namespaces/inkscape"></aaa:namedview>
      <polyline points="-8,8 0,0 8,8  " id="polyline3151" transform="translate(0.00331331,0.73371025)" style="fill:none;stroke:#a0a0a0;stroke-width:2;" stroke="#a0a0a0" stroke-width="2"/>
    </g>
  </g>
</svg>